<svg width="25" height="24" viewBox="0 0 25 24" fill="none" xmlns="http://www.w3.org/2000/svg">
<path d="M8.5 12C8.5 12.3978 8.34196 12.7794 8.06066 13.0607C7.77936 13.342 7.39782 13.5 7 13.5C6.60218 13.5 6.22064 13.342 5.93934 13.0607C5.65804 12.7794 5.5 12.3978 5.5 12C5.5 11.6022 5.65804 11.2206 5.93934 10.9393C6.22064 10.658 6.60218 10.5 7 10.5C7.39782 10.5 7.77936 10.658 8.06066 10.9393C8.34196 11.2206 8.5 11.6022 8.5 12Z" fill="#4A4A4A"/>
<path d="M14 12C14 12.3978 13.842 12.7794 13.5607 13.0607C13.2794 13.342 12.8978 13.5 12.5 13.5C12.1022 13.5 11.7206 13.342 11.4393 13.0607C11.158 12.7794 11 12.3978 11 12C11 11.6022 11.158 11.2206 11.4393 10.9393C11.7206 10.658 12.1022 10.5 12.5 10.5C12.8978 10.5 13.2794 10.658 13.5607 10.9393C13.842 11.2206 14 11.6022 14 12Z" fill="#4A4A4A"/>
<path d="M18 13.5C18.3978 13.5 18.7794 13.342 19.0607 13.0607C19.342 12.7794 19.5 12.3978 19.5 12C19.5 11.6022 19.342 11.2206 19.0607 10.9393C18.7794 10.658 18.3978 10.5 18 10.5C17.6022 10.5 17.2206 10.658 16.9393 10.9393C16.658 11.2206 16.5 11.6022 16.5 12C16.5 12.3978 16.658 12.7794 16.9393 13.0607C17.2206 13.342 17.6022 13.5 18 13.5Z" fill="#4A4A4A"/>
</svg>
