<svg width="25" height="24" viewBox="0 0 25 24" fill="none" xmlns="http://www.w3.org/2000/svg">
<path d="M10 6.25C10 5.84 10.34 5.5 10.75 5.5H16.75C16.9489 5.5 17.1397 5.57902 17.2803 5.71967C17.421 5.86032 17.5 6.05109 17.5 6.25C17.5 6.44891 17.421 6.63968 17.2803 6.78033C17.1397 6.92098 16.9489 7 16.75 7H14.41L12.13 17H14.25C14.4489 17 14.6397 17.079 14.7803 17.2197C14.921 17.3603 15 17.5511 15 17.75C15 17.9489 14.921 18.1397 14.7803 18.2803C14.6397 18.421 14.4489 18.5 14.25 18.5H8.25C8.05109 18.5 7.86032 18.421 7.71967 18.2803C7.57902 18.1397 7.5 17.9489 7.5 17.75C7.5 17.5511 7.57902 17.3603 7.71967 17.2197C7.86032 17.079 8.05109 17 8.25 17H10.59L12.87 7H10.75C10.5511 7 10.3603 6.92098 10.2197 6.78033C10.079 6.63968 10 6.44891 10 6.25Z" fill="#4A4A4A"/>
</svg>
