<svg width="37" height="20" viewBox="0 0 37 20" fill="none" xmlns="http://www.w3.org/2000/svg">
<path fill-rule="evenodd" clip-rule="evenodd" d="M14.94 7.25C14.25 7.25 13.69 7.81 13.69 8.50001C13.69 8.69892 13.611 8.88968 13.4703 9.03033C13.3297 9.17099 13.1389 9.25001 12.94 9.25001C12.7411 9.25001 12.5503 9.17099 12.4097 9.03033C12.269 8.88968 12.19 8.69892 12.19 8.50001C12.1903 8.00004 12.3268 7.5096 12.585 7.08144C12.8431 6.65329 13.2131 6.3036 13.6552 6.07001C14.0972 5.83642 14.5946 5.72776 15.0937 5.75571C15.5929 5.78365 16.075 5.94716 16.4882 6.22864C16.9014 6.51012 17.2301 6.89892 17.4388 7.35322C17.6476 7.80752 17.7285 8.31013 17.673 8.807C17.6174 9.30387 17.4274 9.77619 17.1235 10.1732C16.8196 10.5701 16.4132 10.8767 15.948 11.06C15.8626 11.0915 15.7854 11.1418 15.722 11.207C15.7086 11.2203 15.6978 11.2358 15.69 11.253C15.6896 11.4519 15.6102 11.6425 15.4693 11.7829C15.3283 11.9233 15.1374 12.0019 14.9385 12.0015C14.7396 12.0011 14.549 11.9217 14.4086 11.7808C14.2682 11.6398 14.1896 11.4489 14.19 11.25C14.19 10.385 14.886 9.865 15.398 9.664C15.6694 9.55775 15.8952 9.35997 16.0363 9.10487C16.1773 8.84977 16.2248 8.55339 16.1705 8.267C16.1161 7.98061 15.9634 7.72221 15.7387 7.5365C15.514 7.35079 15.2315 7.24945 14.94 7.25Z" fill="#8A8A8A"/>
<path d="M14.94 14.5C15.2052 14.5 15.4596 14.3946 15.6471 14.2071C15.8346 14.0196 15.94 13.7652 15.94 13.5C15.94 13.2348 15.8346 12.9804 15.6471 12.7929C15.4596 12.6054 15.2052 12.5 14.94 12.5C14.6748 12.5 14.4204 12.6054 14.2329 12.7929C14.0454 12.9804 13.94 13.2348 13.94 13.5C13.94 13.7652 14.0454 14.0196 14.2329 14.2071C14.4204 14.3946 14.6748 14.5 14.94 14.5Z" fill="#8A8A8A"/>
<path fill-rule="evenodd" clip-rule="evenodd" d="M14.94 17C15.8593 17 16.7695 16.8189 17.6188 16.4672C18.4681 16.1154 19.2397 15.5998 19.8897 14.9497C20.5398 14.2997 21.0554 13.5281 21.4072 12.6788C21.7589 11.8295 21.94 10.9193 21.94 10C21.94 9.08075 21.7589 8.1705 21.4072 7.32122C21.0554 6.47194 20.5398 5.70026 19.8897 5.05025C19.2397 4.40024 18.4681 3.88463 17.6188 3.53284C16.7695 3.18106 15.8593 3 14.94 3C13.0835 3 11.303 3.7375 9.99025 5.05025C8.6775 6.36301 7.94 8.14348 7.94 10C7.94 11.8565 8.6775 13.637 9.99025 14.9497C11.303 16.2625 13.0835 17 14.94 17ZM14.94 15.5C16.3987 15.5 17.7976 14.9205 18.8291 13.8891C19.8605 12.8576 20.44 11.4587 20.44 10C20.44 8.54131 19.8605 7.14236 18.8291 6.11091C17.7976 5.07946 16.3987 4.5 14.94 4.5C13.4813 4.5 12.0824 5.07946 11.0509 6.11091C10.0195 7.14236 9.44 8.54131 9.44 10C9.44 11.4587 10.0195 12.8576 11.0509 13.8891C12.0824 14.9205 13.4813 15.5 14.94 15.5Z" fill="#8A8A8A"/>
</svg>
