<svg width="33" height="24" viewBox="0 0 33 24" fill="none" xmlns="http://www.w3.org/2000/svg">
<path d="M22.391 6.95599C22.4411 6.76618 22.4149 6.56427 22.3178 6.3936C22.2208 6.22294 22.0607 6.09714 21.8719 6.0432C21.6831 5.98927 21.4808 6.0115 21.3082 6.10513C21.1356 6.19876 21.0067 6.35633 20.949 6.54399L17.949 17.044C17.9197 17.1393 17.9097 17.2396 17.9196 17.3388C17.9295 17.4381 17.9591 17.5344 18.0067 17.622C18.0542 17.7097 18.1188 17.787 18.1966 17.8494C18.2744 17.9118 18.3639 17.9581 18.4598 17.9855C18.5557 18.0129 18.6562 18.0209 18.7552 18.009C18.8542 17.9971 18.9499 17.9656 19.0366 17.9163C19.1233 17.867 19.1993 17.8009 19.2602 17.7218C19.321 17.6428 19.3655 17.5524 19.391 17.456L22.391 6.95599Z" fill="#4A4A4A"/>
<path d="M17.2 8.22001C17.3404 8.36064 17.4193 8.55126 17.4193 8.75001C17.4193 8.94876 17.3404 9.13939 17.2 9.28001L14.48 12L17.2 14.72C17.3325 14.8622 17.4046 15.0502 17.4012 15.2445C17.3977 15.4388 17.319 15.6242 17.1816 15.7616C17.0442 15.899 16.8588 15.9778 16.6645 15.9812C16.4702 15.9846 16.2822 15.9125 16.14 15.78L12.89 12.53C12.7495 12.3894 12.6706 12.1988 12.6706 12C12.6706 11.8013 12.7495 11.6106 12.89 11.47L16.14 8.22001C16.2806 8.07956 16.4712 8.00067 16.67 8.00067C16.8687 8.00067 17.0594 8.07956 17.2 8.22001Z" fill="#4A4A4A"/>
<path d="M23.14 15.78C22.9995 15.6394 22.9206 15.4487 22.9206 15.25C22.9206 15.0512 22.9995 14.8606 23.14 14.72L25.86 12L23.14 9.28C23.0075 9.13782 22.9354 8.94978 22.9388 8.75548C22.9422 8.56118 23.0209 8.37579 23.1584 8.23838C23.2958 8.10096 23.4812 8.02225 23.6755 8.01882C23.8698 8.0154 24.0578 8.08752 24.2 8.22L27.45 11.47C27.5904 11.6106 27.6693 11.8012 27.6693 12C27.6693 12.1987 27.5904 12.3894 27.45 12.53L24.2 15.78C24.0594 15.9204 23.8687 15.9993 23.67 15.9993C23.4712 15.9993 23.2806 15.9204 23.14 15.78Z" fill="#4A4A4A"/>
</svg>
