<svg width="21" height="20" viewBox="0 0 21 20" fill="none" xmlns="http://www.w3.org/2000/svg">
<path fill-rule="evenodd" clip-rule="evenodd" d="M6.49997 1.75C6.69888 1.75 6.88965 1.82902 7.0303 1.96967C7.17095 2.11032 7.24997 2.30109 7.24997 2.5V3.028C7.73697 3 8.31997 3 9.01797 3H11.5V2.5C11.5 2.30109 11.579 2.11032 11.7196 1.96967C11.8603 1.82902 12.0511 1.75 12.25 1.75C12.4489 1.75 12.6396 1.82902 12.7803 1.96967C12.921 2.11032 13 2.30109 13 2.5V3.104C13.6456 3.27793 14.216 3.65982 14.6227 4.19057C15.0294 4.72131 15.2499 5.37132 15.25 6.04C15.25 6.875 14.572 7.553 13.737 7.553H5.00397C4.99997 7.841 4.99997 8.17 4.99997 8.55V11.018C4.99997 12.251 5.99997 13.25 7.23197 13.25C7.43088 13.25 7.62165 13.329 7.7623 13.4697C7.90295 13.6103 7.98197 13.8011 7.98197 14C7.98197 14.1989 7.90295 14.3897 7.7623 14.5303C7.62165 14.671 7.43088 14.75 7.23197 14.75C6.74188 14.75 6.25658 14.6535 5.80379 14.4659C5.35101 14.2784 4.9396 14.0035 4.59305 13.6569C3.89316 12.957 3.49997 12.0078 3.49997 11.018V8.518C3.49997 7.705 3.49997 7.049 3.54297 6.518C3.58797 5.972 3.68297 5.492 3.90897 5.048C4.30352 4.27464 4.95419 3.66214 5.74997 3.315V2.5C5.74997 2.30109 5.82899 2.11032 5.96964 1.96967C6.11029 1.82902 6.30106 1.75 6.49997 1.75ZM13.737 6.053H5.12697C5.15997 5.923 5.19897 5.819 5.24497 5.729C5.46075 5.30526 5.80523 4.96078 6.22897 4.745C6.42597 4.645 6.68697 4.575 7.14097 4.538C7.60297 4.501 8.19797 4.5 9.04997 4.5H12.21C13.06 4.5 13.75 5.19 13.75 6.04V6.045C13.7489 6.04658 13.7475 6.04793 13.746 6.049C13.7448 6.05022 13.7435 6.05123 13.742 6.052L13.737 6.053Z" fill="#8A8A8A"/>
<path d="M14.75 12C14.75 11.8011 14.671 11.6103 14.5303 11.4697C14.3896 11.329 14.1989 11.25 14 11.25C13.8011 11.25 13.6103 11.329 13.4696 11.4697C13.329 11.6103 13.25 11.8011 13.25 12V13.293C13.25 13.624 13.382 13.943 13.616 14.177L14.47 15.03C14.5386 15.1037 14.6214 15.1628 14.7134 15.2038C14.8054 15.2448 14.9047 15.2668 15.0054 15.2686C15.1062 15.2704 15.2062 15.2518 15.2996 15.2141C15.393 15.1764 15.4778 15.1203 15.549 15.049C15.6202 14.9778 15.6764 14.893 15.7141 14.7996C15.7518 14.7062 15.7703 14.6062 15.7686 14.5055C15.7668 14.4048 15.7447 14.3055 15.7038 14.2135C15.6628 14.1215 15.6037 14.0387 15.53 13.97L14.75 13.19V12Z" fill="#8A8A8A"/>
<path fill-rule="evenodd" clip-rule="evenodd" d="M14 18C15.1934 18 16.338 17.5259 17.1819 16.682C18.0259 15.8381 18.5 14.6935 18.5 13.5C18.5 12.3065 18.0259 11.1619 17.1819 10.318C16.338 9.47411 15.1934 9 14 9C12.8065 9 11.6619 9.47411 10.818 10.318C9.97408 11.1619 9.49997 12.3065 9.49997 13.5C9.49997 14.6935 9.97408 15.8381 10.818 16.682C11.6619 17.5259 12.8065 18 14 18ZM14 16.5C14.7956 16.5 15.5587 16.1839 16.1213 15.6213C16.6839 15.0587 17 14.2956 17 13.5C17 12.7044 16.6839 11.9413 16.1213 11.3787C15.5587 10.8161 14.7956 10.5 14 10.5C13.2043 10.5 12.4413 10.8161 11.8786 11.3787C11.316 11.9413 11 12.7044 11 13.5C11 14.2956 11.316 15.0587 11.8786 15.6213C12.4413 16.1839 13.2043 16.5 14 16.5Z" fill="#8A8A8A"/>
</svg>
