<svg width="37" height="20" viewBox="0 0 37 20" fill="none" xmlns="http://www.w3.org/2000/svg">
<path fill-rule="evenodd" clip-rule="evenodd" d="M14.72 7.25C14.03 7.25 13.47 7.81 13.47 8.50001C13.47 8.69892 13.391 8.88968 13.2503 9.03033C13.1097 9.17099 12.9189 9.25001 12.72 9.25001C12.5211 9.25001 12.3303 9.17099 12.1897 9.03033C12.049 8.88968 11.97 8.69892 11.97 8.50001C11.9703 8.00004 12.1068 7.5096 12.365 7.08144C12.6231 6.65329 12.9931 6.3036 13.4352 6.07001C13.8772 5.83642 14.3746 5.72776 14.8737 5.75571C15.3729 5.78365 15.855 5.94716 16.2682 6.22864C16.6814 6.51012 17.0101 6.89892 17.2188 7.35322C17.4276 7.80752 17.5085 8.31013 17.453 8.807C17.3974 9.30387 17.2074 9.77619 16.9035 10.1732C16.5996 10.5701 16.1932 10.8767 15.728 11.06C15.6426 11.0915 15.5654 11.1418 15.502 11.207C15.4886 11.2203 15.4778 11.2358 15.47 11.253C15.4696 11.4519 15.3902 11.6425 15.2493 11.7829C15.1083 11.9233 14.9174 12.0019 14.7185 12.0015C14.5196 12.0011 14.329 11.9217 14.1886 11.7808C14.0482 11.6398 13.9696 11.4489 13.97 11.25C13.97 10.385 14.666 9.865 15.178 9.664C15.4494 9.55775 15.6752 9.35997 15.8163 9.10487C15.9573 8.84977 16.0048 8.55339 15.9505 8.267C15.8961 7.98061 15.7434 7.72221 15.5187 7.5365C15.294 7.35079 15.0115 7.24945 14.72 7.25Z" fill="#8A8A8A"/>
<path d="M14.72 14.5C14.9852 14.5 15.2396 14.3946 15.4271 14.2071C15.6146 14.0196 15.72 13.7652 15.72 13.5C15.72 13.2348 15.6146 12.9804 15.4271 12.7929C15.2396 12.6054 14.9852 12.5 14.72 12.5C14.4548 12.5 14.2004 12.6054 14.0129 12.7929C13.8254 12.9804 13.72 13.2348 13.72 13.5C13.72 13.7652 13.8254 14.0196 14.0129 14.2071C14.2004 14.3946 14.4548 14.5 14.72 14.5Z" fill="#8A8A8A"/>
<path fill-rule="evenodd" clip-rule="evenodd" d="M14.72 17C15.6393 17 16.5495 16.8189 17.3988 16.4672C18.2481 16.1154 19.0197 15.5998 19.6697 14.9497C20.3198 14.2997 20.8354 13.5281 21.1872 12.6788C21.5389 11.8295 21.72 10.9193 21.72 10C21.72 9.08075 21.5389 8.1705 21.1872 7.32122C20.8354 6.47194 20.3198 5.70026 19.6697 5.05025C19.0197 4.40024 18.2481 3.88463 17.3988 3.53284C16.5495 3.18106 15.6393 3 14.72 3C12.8635 3 11.083 3.7375 9.77025 5.05025C8.4575 6.36301 7.72 8.14348 7.72 10C7.72 11.8565 8.4575 13.637 9.77025 14.9497C11.083 16.2625 12.8635 17 14.72 17ZM14.72 15.5C16.1787 15.5 17.5776 14.9205 18.6091 13.8891C19.6405 12.8576 20.22 11.4587 20.22 10C20.22 8.54131 19.6405 7.14236 18.6091 6.11091C17.5776 5.07946 16.1787 4.5 14.72 4.5C13.2613 4.5 11.8624 5.07946 10.8309 6.11091C9.79946 7.14236 9.22 8.54131 9.22 10C9.22 11.4587 9.79946 12.8576 10.8309 13.8891C11.8624 14.9205 13.2613 15.5 14.72 15.5Z" fill="#8A8A8A"/>
</svg>
