<svg width="41" height="24" viewBox="0 0 41 24" fill="none" xmlns="http://www.w3.org/2000/svg">
<path fill-rule="evenodd" clip-rule="evenodd" d="M12.5 5C12.6453 5.00001 12.7876 5.04227 12.9094 5.12163C13.0312 5.20099 13.1273 5.31403 13.186 5.447L17.386 14.947C17.4273 15.0373 17.4502 15.1349 17.4535 15.2342C17.4568 15.3334 17.4403 15.4324 17.4051 15.5252C17.3698 15.6181 17.3164 15.703 17.2481 15.775C17.1798 15.8471 17.0978 15.9048 17.007 15.945C16.9161 15.9851 16.8182 16.0068 16.7189 16.0088C16.6196 16.0107 16.5209 15.993 16.4285 15.9565C16.3362 15.9201 16.252 15.8656 16.1808 15.7963C16.1096 15.7271 16.0529 15.6444 16.014 15.553L14.664 12.5H10.336L8.98599 15.553C8.90396 15.7324 8.75459 15.8722 8.57022 15.9422C8.38585 16.0122 8.18131 16.0068 8.0009 15.9271C7.82049 15.8475 7.67873 15.6999 7.60631 15.5165C7.5339 15.333 7.53665 15.1284 7.61399 14.947L11.814 5.447C11.8727 5.31403 11.9688 5.20099 12.0906 5.12163C12.2124 5.04227 12.3546 5.00001 12.5 5ZM11 11H14L12.5 7.605L11 11Z" fill="#4A4A4A"/>
<path d="M5.57501 18.25C5.57501 18.0511 5.65403 17.8603 5.79468 17.7197C5.93533 17.579 6.1261 17.5 6.32501 17.5H18.675C18.8739 17.5 19.0647 17.579 19.2053 17.7197C19.346 17.8603 19.425 18.0511 19.425 18.25C19.425 18.4489 19.346 18.6397 19.2053 18.7803C19.0647 18.921 18.8739 19 18.675 19H6.32501C6.1261 19 5.93533 18.921 5.79468 18.7803C5.65403 18.6397 5.57501 18.4489 5.57501 18.25Z" fill="#4A4A4A"/>
<path fill-rule="evenodd" clip-rule="evenodd" d="M24.74 10.2C24.8122 10.133 24.8969 10.0809 24.9893 10.0467C25.0817 10.0124 25.1799 9.99673 25.2783 10.0004C25.3767 10.0042 25.4735 10.0272 25.563 10.0683C25.6525 10.1094 25.733 10.1678 25.8 10.24L28.5 13.148L31.2 10.24C31.3353 10.0941 31.5229 10.008 31.7217 10.0005C31.9205 9.99297 32.1141 10.0647 32.26 10.2C32.4059 10.3353 32.492 10.5229 32.4995 10.7217C32.507 10.9205 32.4353 11.1141 32.3 11.26L29.05 14.76C28.9798 14.8357 28.8947 14.8961 28.8001 14.9375C28.7054 14.9788 28.6033 15.0001 28.5 15.0001C28.3967 15.0001 28.2946 14.9788 28.1999 14.9375C28.1053 14.8961 28.0202 14.8357 27.95 14.76L24.7 11.26C24.633 11.1878 24.5809 11.1031 24.5467 11.0107C24.5124 10.9183 24.4967 10.8201 24.5004 10.7217C24.5042 10.6233 24.5272 10.5265 24.5683 10.437C24.6094 10.3475 24.6678 10.267 24.74 10.2Z" fill="#4A4A4A"/>
</svg>
