<svg width="280" height="32" viewBox="0 0 280 32" fill="none" xmlns="http://www.w3.org/2000/svg">
<path d="M262.384 10.323C262.268 10.2069 262.13 10.1148 261.978 10.052C261.827 9.98913 261.664 9.95679 261.5 9.95679C261.336 9.95679 261.173 9.98913 261.022 10.052C260.87 10.1148 260.732 10.2069 260.616 10.323L257.97 12.97C257.838 13.1122 257.765 13.3002 257.769 13.4945C257.772 13.6888 257.851 13.8742 257.988 14.0116C258.126 14.1491 258.311 14.2278 258.505 14.2312C258.7 14.2346 258.888 14.1625 259.03 14.03L261.5 11.56L263.97 14.03C264.039 14.1037 264.121 14.1628 264.213 14.2038C264.305 14.2448 264.405 14.2668 264.505 14.2686C264.606 14.2704 264.706 14.2519 264.8 14.2141C264.893 14.1764 264.978 14.1203 265.049 14.0491C265.12 13.9778 265.176 13.893 265.214 13.7996C265.252 13.7062 265.27 13.6062 265.269 13.5055C265.267 13.4048 265.245 13.3055 265.204 13.2135C265.163 13.1215 265.104 13.0387 265.03 12.97L262.384 10.323Z" fill="#8A8A8A"/>
<path d="M265.03 19.03L262.384 21.677C262.268 21.7931 262.13 21.8852 261.978 21.948C261.827 22.0109 261.664 22.0432 261.5 22.0432C261.336 22.0432 261.173 22.0109 261.022 21.948C260.87 21.8852 260.732 21.7931 260.616 21.677L257.97 19.03C257.838 18.8878 257.765 18.6997 257.769 18.5054C257.772 18.3111 257.851 18.1258 257.988 17.9883C258.126 17.8509 258.311 17.7722 258.505 17.7688C258.7 17.7654 258.888 17.8375 259.03 17.97L261.5 20.44L263.97 17.97C264.112 17.8375 264.3 17.7654 264.495 17.7688C264.689 17.7722 264.874 17.8509 265.012 17.9883C265.149 18.1258 265.228 18.3111 265.231 18.5054C265.235 18.6997 265.162 18.8878 265.03 19.03Z" fill="#8A8A8A"/>
</svg>
