<svg width="45" height="24" viewBox="0 0 45 24" fill="none" xmlns="http://www.w3.org/2000/svg">
<rect x="0.5" width="44" height="24" rx="4" fill="#F7F7F7"/>
<path d="M8.20199 6.25299C8.25587 6.15476 8.33516 6.07281 8.43156 6.01573C8.52797 5.95864 8.63795 5.92853 8.74999 5.92853C8.86203 5.92853 8.97201 5.95864 9.06842 6.01573C9.16483 6.07281 9.24412 6.15476 9.29799 6.25299L9.49399 6.61099C9.70099 6.98899 10.011 7.29899 10.389 7.50599L10.747 7.70199C10.8455 7.75579 10.9277 7.83511 10.9849 7.93162C11.0422 8.02813 11.0724 8.13828 11.0724 8.25049C11.0724 8.36271 11.0422 8.47286 10.9849 8.56937C10.9277 8.66588 10.8455 8.7452 10.747 8.79899L10.389 8.99499C10.0113 9.20127 9.70069 9.51153 9.49399 9.88899L9.29799 10.248C9.24412 10.3462 9.16483 10.4282 9.06842 10.4853C8.97201 10.5423 8.86203 10.5725 8.74999 10.5725C8.63795 10.5725 8.52797 10.5423 8.43156 10.4853C8.33516 10.4282 8.25587 10.3462 8.20199 10.248L8.00599 9.88899C7.79929 9.51153 7.48868 9.20127 7.11099 8.99499L6.75299 8.79899C6.65451 8.7452 6.57233 8.66588 6.51508 8.56937C6.45782 8.47286 6.42761 8.36271 6.42761 8.25049C6.42761 8.13828 6.45782 8.02813 6.51508 7.93162C6.57233 7.83511 6.65451 7.75579 6.75299 7.70199L7.11099 7.50599C7.48882 7.29945 7.79945 6.98882 8.00599 6.61099L8.20199 6.25299Z" fill="#9474FF"/>
<path fill-rule="evenodd" clip-rule="evenodd" d="M15.448 9.88999C15.268 8.72299 13.596 8.69999 13.384 9.86099L13.354 10.025C13.2146 10.787 12.8431 11.4872 12.2903 12.0298C11.7375 12.5724 11.0304 12.9309 10.266 13.056C9.11598 13.245 9.09298 14.889 10.236 15.11L10.341 15.13C11.0905 15.2748 11.7796 15.6407 12.3194 16.1806C12.8592 16.7204 13.2251 17.4094 13.37 18.159L13.402 18.324C13.635 19.532 15.365 19.532 15.598 18.324L15.623 18.195C15.7697 17.4367 16.1419 16.7403 16.6909 16.197C17.2399 15.6537 17.9402 15.2888 18.7 15.15C19.884 14.934 19.82 13.222 18.629 13.043C17.8325 12.9235 17.0949 12.5533 16.5231 11.9861C15.9513 11.419 15.575 10.6844 15.449 9.88899L15.448 9.88999ZM14.504 16.777C15.012 15.6221 15.9125 14.6843 17.046 14.13C15.8954 13.6193 14.9639 12.7162 14.418 11.582C13.9024 12.6797 13.0236 13.5657 11.93 14.09C13.083 14.6473 13.9967 15.6011 14.504 16.777Z" fill="#9474FF"/>
<path fill-rule="evenodd" clip-rule="evenodd" d="M28.74 10.2C28.8122 10.133 28.8969 10.0809 28.9893 10.0467C29.0816 10.0124 29.1798 9.99673 29.2783 10.0004C29.3767 10.0042 29.4734 10.0272 29.5629 10.0683C29.6525 10.1094 29.733 10.1678 29.8 10.24L32.5 13.148L35.2 10.24C35.3352 10.0941 35.5229 10.008 35.7217 10.0005C35.9205 9.99297 36.1141 10.0647 36.26 10.2C36.4058 10.3353 36.492 10.5229 36.4995 10.7217C36.507 10.9205 36.4352 11.1141 36.3 11.26L33.05 14.76C32.9798 14.8357 32.8947 14.8961 32.8 14.9375C32.7054 14.9788 32.6032 15.0001 32.5 15.0001C32.3967 15.0001 32.2946 14.9788 32.1999 14.9375C32.1053 14.8961 32.0202 14.8357 31.95 14.76L28.7 11.26C28.633 11.1878 28.5809 11.1031 28.5466 11.0107C28.5124 10.9183 28.4967 10.8201 28.5004 10.7217C28.5041 10.6233 28.5272 10.5265 28.5683 10.437C28.6094 10.3475 28.6677 10.267 28.74 10.2Z" fill="#4A4A4A"/>
</svg>
