<svg width="21" height="20" viewBox="0 0 21 20" fill="none" xmlns="http://www.w3.org/2000/svg">
<path fill-rule="evenodd" clip-rule="evenodd" d="M6.74 8.2C6.81223 8.13302 6.89694 8.08092 6.9893 8.04668C7.08166 8.01244 7.17986 7.99673 7.27829 8.00044C7.37672 8.00416 7.47346 8.02722 7.56297 8.06833C7.65249 8.10943 7.73303 8.16777 7.8 8.24L10.5 11.148L13.2 8.24C13.3353 8.09413 13.5229 8.00797 13.7217 8.00047C13.9205 7.99297 14.1141 8.06474 14.26 8.2C14.4059 8.33526 14.492 8.52293 14.4995 8.72172C14.507 8.92051 14.4353 9.11413 14.3 9.26L11.05 12.76C10.9798 12.8357 10.8947 12.8961 10.8001 12.9375C10.7054 12.9788 10.6033 13.0001 10.5 13.0001C10.3967 13.0001 10.2946 12.9788 10.1999 12.9375C10.1053 12.8961 10.0202 12.8357 9.95 12.76L6.7 9.26C6.63302 9.18778 6.58092 9.10307 6.54668 9.01071C6.51244 8.91835 6.49673 8.82015 6.50044 8.72172C6.50416 8.62328 6.52722 8.52655 6.56833 8.43703C6.60943 8.34751 6.66777 8.26697 6.74 8.2Z" fill="#4A4A4A"/>
</svg>
