<svg width="25" height="24" viewBox="0 0 25 24" fill="none" xmlns="http://www.w3.org/2000/svg">
<path d="M9.75 5.75C9.75 5.55109 9.67098 5.36032 9.53033 5.21967C9.38968 5.07902 9.19891 5 9 5C8.80109 5 8.61032 5.07902 8.46967 5.21967C8.32902 5.36032 8.25 5.55109 8.25 5.75V11.75C8.25 12.8772 8.69777 13.9582 9.4948 14.7552C10.2918 15.5522 11.3728 16 12.5 16C13.6272 16 14.7082 15.5522 15.5052 14.7552C16.3022 13.9582 16.75 12.8772 16.75 11.75V5.75C16.75 5.55109 16.671 5.36032 16.5303 5.21967C16.3897 5.07902 16.1989 5 16 5C15.8011 5 15.6103 5.07902 15.4697 5.21967C15.329 5.36032 15.25 5.55109 15.25 5.75V11.75C15.25 12.4793 14.9603 13.1788 14.4445 13.6945C13.9288 14.2103 13.2293 14.5 12.5 14.5C11.7707 14.5 11.0712 14.2103 10.5555 13.6945C10.0397 13.1788 9.75 12.4793 9.75 11.75V5.75ZM7.25 17.5C7.05109 17.5 6.86032 17.579 6.71967 17.7197C6.57902 17.8603 6.5 18.0511 6.5 18.25C6.5 18.4489 6.57902 18.6397 6.71967 18.7803C6.86032 18.921 7.05109 19 7.25 19H17.75C17.9489 19 18.1397 18.921 18.2803 18.7803C18.421 18.6397 18.5 18.4489 18.5 18.25C18.5 18.0511 18.421 17.8603 18.2803 17.7197C18.1397 17.579 17.9489 17.5 17.75 17.5H7.25Z" fill="#4A4A4A"/>
</svg>
