<svg width="81" height="24" viewBox="0 0 81 24" fill="none" xmlns="http://www.w3.org/2000/svg">
<path fill-rule="evenodd" clip-rule="evenodd" d="M18.342 6.17499C17.9941 5.82709 17.5812 5.55112 17.1267 5.36283C16.6721 5.17455 16.185 5.07764 15.693 5.07764C15.201 5.07764 14.7139 5.17455 14.2594 5.36283C13.8048 5.55112 13.3919 5.82709 13.044 6.17499L10.928 8.29199C10.579 8.64105 10.3023 9.05557 10.1139 9.5118C9.9254 9.96802 9.82886 10.457 9.82979 10.9506C9.83072 11.4442 9.92909 11.9328 10.1193 12.3883C10.3094 12.8438 10.5877 13.2573 10.938 13.605L11.276 13.941C11.3454 14.0124 11.4284 14.0692 11.52 14.1082C11.6116 14.1471 11.7101 14.1675 11.8097 14.168C11.9092 14.1685 12.0079 14.1492 12.0999 14.1112C12.192 14.0732 12.2755 14.0172 12.3457 13.9466C12.4158 13.8759 12.4712 13.792 12.5086 13.6998C12.546 13.6075 12.5647 13.5087 12.5635 13.4091C12.5624 13.3096 12.5414 13.2112 12.5018 13.1199C12.4622 13.0285 12.4048 12.9459 12.333 12.877L11.994 12.54C11.784 12.3313 11.6172 12.0832 11.5033 11.8099C11.3893 11.5367 11.3304 11.2436 11.33 10.9475C11.3295 10.6515 11.3875 10.3582 11.5006 10.0846C11.6137 9.81096 11.7796 9.56235 11.989 9.35299L14.105 7.23599C14.5267 6.81523 15.0983 6.57921 15.694 6.57987C16.2897 6.58052 16.8607 6.8178 17.2815 7.23949C17.7023 7.66119 17.9383 8.23276 17.9376 8.82847C17.937 9.42418 17.6997 9.99523 17.278 10.416L16.226 11.463C16.0849 11.6033 16.0053 11.7939 16.0048 11.9929C16.0042 12.1918 16.0827 12.3829 16.223 12.524C16.3633 12.6651 16.5539 12.7447 16.7529 12.7452C16.9519 12.7458 17.1429 12.6673 17.284 12.527L18.336 11.48C18.6853 11.1324 18.9627 10.7193 19.1521 10.2643C19.3415 9.8094 19.4393 9.32155 19.4399 8.82874C19.4404 8.33593 19.3437 7.84786 19.1553 7.39248C18.967 6.9371 18.6906 6.52337 18.342 6.17499ZM6.678 17.845C7.02624 18.1933 7.43968 18.4696 7.89471 18.6581C8.34975 18.8467 8.83746 18.9437 9.33 18.9437C9.82254 18.9437 10.3103 18.8467 10.7653 18.6581C11.2203 18.4696 11.6338 18.1933 11.982 17.845L14.103 15.724C14.8062 15.0207 15.2012 14.067 15.2012 13.0725C15.2012 12.078 14.8062 11.1242 14.103 10.421L13.741 10.059C13.5988 9.92651 13.4108 9.85439 13.2165 9.85782C13.0222 9.86125 12.8368 9.93996 12.6994 10.0774C12.562 10.2148 12.4833 10.4002 12.4798 10.5945C12.4764 10.7888 12.5485 10.9768 12.681 11.119L13.043 11.481C13.2519 11.6899 13.4177 11.938 13.5307 12.2109C13.6438 12.4839 13.702 12.7765 13.702 13.072C13.702 13.3675 13.6438 13.6601 13.5307 13.933C13.4177 14.206 13.2519 14.4541 13.043 14.663L10.921 16.785C10.7121 16.9939 10.464 17.1597 10.191 17.2727C9.91806 17.3858 9.62548 17.444 9.33 17.444C9.03453 17.444 8.74194 17.3858 8.46896 17.2727C8.19598 17.1597 7.94794 16.9939 7.739 16.785C7.53007 16.5761 7.36433 16.328 7.25126 16.055C7.13819 15.7821 7.07999 15.4895 7.07999 15.194C7.07999 14.8985 7.13819 14.6059 7.25126 14.3329C7.36433 14.06 7.53007 13.8119 7.739 13.603L8.809 12.533C8.94957 12.3922 9.02843 12.2013 9.02824 12.0023C9.02806 11.8033 8.94883 11.6126 8.808 11.472C8.66717 11.3314 8.47627 11.2526 8.2773 11.2528C8.07832 11.2529 7.88757 11.3322 7.747 11.473L6.678 12.542C5.97483 13.2452 5.5798 14.199 5.5798 15.1935C5.5798 16.188 5.97483 17.1417 6.678 17.845Z" fill="#CCCCCC"/>
<path d="M43 11C43.3978 11 43.7794 10.842 44.0607 10.5607C44.342 10.2794 44.5 9.89782 44.5 9.5C44.5 9.10218 44.342 8.72064 44.0607 8.43934C43.7794 8.15804 43.3978 8 43 8C42.6022 8 42.2206 8.15804 41.9393 8.43934C41.658 8.72064 41.5 9.10218 41.5 9.5C41.5 9.89782 41.658 10.2794 41.9393 10.5607C42.2206 10.842 42.6022 11 43 11Z" fill="#4A4A4A"/>
<path fill-rule="evenodd" clip-rule="evenodd" d="M39.518 5.5H41.482C42.295 5.5 42.951 5.5 43.482 5.543C44.028 5.588 44.508 5.683 44.952 5.909C45.6581 6.26837 46.2322 6.84214 46.592 7.548C46.818 7.992 46.912 8.472 46.957 9.018C47 9.549 47 10.205 47 11.018V12.982C47 13.795 47 14.451 46.957 14.982C46.912 15.528 46.817 16.008 46.591 16.452C46.2316 17.1581 45.6579 17.7322 44.952 18.092C44.508 18.318 44.028 18.412 43.482 18.457C42.951 18.5 42.295 18.5 41.482 18.5H39.518C38.705 18.5 38.049 18.5 37.518 18.457C36.972 18.412 36.492 18.317 36.048 18.091C35.3419 17.7316 34.7678 17.1579 34.408 16.452C34.182 16.008 34.088 15.528 34.043 14.982C34 14.451 34 13.795 34 12.982V11.018C34 10.205 34 9.549 34.043 9.018C34.088 8.472 34.183 7.992 34.409 7.548C34.7684 6.84192 35.3421 6.2678 36.048 5.908C36.492 5.682 36.972 5.588 37.518 5.543C38.049 5.5 38.705 5.5 39.518 5.5ZM37.641 7.038C37.187 7.075 36.926 7.145 36.729 7.245C36.3053 7.46078 35.9608 7.80526 35.745 8.229C35.645 8.426 35.575 8.687 35.538 9.141C35.501 9.603 35.5 10.198 35.5 11.05V12.478L36.223 11.611C36.3787 11.4242 36.5716 11.2718 36.7894 11.1637C37.0073 11.0556 37.2453 10.9941 37.4882 10.9831C37.7311 10.9721 37.9737 11.0118 38.2004 11.0998C38.4272 11.1878 38.6331 11.322 38.805 11.494L41.5 14.189L42.68 13.009C42.8541 12.835 43.0629 12.6997 43.2929 12.6119C43.5228 12.5241 43.7687 12.4858 44.0144 12.4995C44.2602 12.5132 44.5003 12.5785 44.719 12.6913C44.9378 12.8041 45.1303 12.9618 45.284 13.154L45.5 13.424V11.05C45.5 10.198 45.5 9.603 45.462 9.14C45.425 8.687 45.355 8.426 45.255 8.229C45.0392 7.80526 44.6947 7.46078 44.271 7.245C44.074 7.145 43.813 7.075 43.359 7.038C42.897 7.001 42.303 7 41.45 7H39.55C38.698 7 38.104 7 37.641 7.038ZM35.538 14.859C35.5358 14.8323 35.5338 14.8057 35.532 14.779C35.5474 14.7633 35.5621 14.747 35.576 14.73L37.376 12.571C37.3983 12.5445 37.4258 12.5229 37.4569 12.5076C37.488 12.4923 37.5219 12.4836 37.5565 12.4821C37.5911 12.4806 37.6256 12.4863 37.6579 12.4989C37.6902 12.5114 37.7195 12.5305 37.744 12.555L40.97 15.78C41.1106 15.9205 41.3012 15.9993 41.5 15.9993C41.6988 15.9993 41.8894 15.9205 42.03 15.78L43.74 14.07C43.7649 14.0452 43.7947 14.0258 43.8276 14.0133C43.8605 14.0008 43.8956 13.9954 43.9307 13.9973C43.9658 13.9993 44.0001 14.0087 44.0313 14.0248C44.0626 14.041 44.0901 14.0635 44.112 14.091L45.325 15.607C45.304 15.667 45.28 15.721 45.255 15.772C45.039 16.195 44.695 16.539 44.271 16.755C44.074 16.855 43.813 16.925 43.359 16.962C42.897 16.999 42.303 17 41.45 17H39.55C38.698 17 38.103 17 37.64 16.962C37.187 16.925 36.926 16.855 36.729 16.755C36.3053 16.5392 35.9608 16.1947 35.745 15.771C35.645 15.574 35.575 15.313 35.538 14.859Z" fill="#4A4A4A"/>
<path fill-rule="evenodd" clip-rule="evenodd" d="M72.375 12.65C72.4892 12.5842 72.5841 12.4895 72.6501 12.3754C72.7161 12.2613 72.7508 12.1318 72.7508 12C72.7508 11.8682 72.7161 11.7387 72.6501 11.6246C72.5841 11.5105 72.4892 11.4158 72.375 11.35L67.125 8.31999C67.011 8.25419 66.8817 8.21954 66.7501 8.21951C66.6185 8.21949 66.4892 8.2541 66.3752 8.31986C66.2612 8.38563 66.1665 8.48023 66.1007 8.59418C66.0348 8.70812 66.0001 8.83739 66 8.96899V15.031C65.9999 15.1627 66.0345 15.2921 66.1003 15.4062C66.1661 15.5202 66.2608 15.615 66.3748 15.6809C66.4888 15.7468 66.6182 15.7815 66.7499 15.7815C66.8816 15.7815 67.011 15.7468 67.125 15.681L72.375 12.65ZM67.5 13.732V10.268L70.5 12L67.5 13.732Z" fill="#4A4A4A"/>
<path fill-rule="evenodd" clip-rule="evenodd" d="M68.5 5C67.5807 5 66.6705 5.18106 65.8212 5.53284C64.9719 5.88463 64.2003 6.40024 63.5503 7.05025C62.9002 7.70026 62.3846 8.47194 62.0328 9.32122C61.6811 10.1705 61.5 11.0807 61.5 12C61.5 12.9193 61.6811 13.8295 62.0328 14.6788C62.3846 15.5281 62.9002 16.2997 63.5503 16.9497C64.2003 17.5998 64.9719 18.1154 65.8212 18.4672C66.6705 18.8189 67.5807 19 68.5 19C70.3565 19 72.137 18.2625 73.4497 16.9497C74.7625 15.637 75.5 13.8565 75.5 12C75.5 10.1435 74.7625 8.36301 73.4497 7.05025C72.137 5.7375 70.3565 5 68.5 5ZM63 12C63 10.5413 63.5795 9.14236 64.6109 8.11091C65.6424 7.07946 67.0413 6.5 68.5 6.5C69.9587 6.5 71.3576 7.07946 72.3891 8.11091C73.4205 9.14236 74 10.5413 74 12C74 13.4587 73.4205 14.8576 72.3891 15.8891C71.3576 16.9205 69.9587 17.5 68.5 17.5C67.0413 17.5 65.6424 16.9205 64.6109 15.8891C63.5795 14.8576 63 13.4587 63 12Z" fill="#4A4A4A"/>
</svg>
