<svg width="41" height="24" viewBox="0 0 41 24" fill="none" xmlns="http://www.w3.org/2000/svg">
<path d="M6.25 6C6.05109 6 5.86032 6.07902 5.71967 6.21967C5.57902 6.36032 5.5 6.55109 5.5 6.75C5.5 6.94891 5.57902 7.13968 5.71967 7.28033C5.86032 7.42098 6.05109 7.5 6.25 7.5H18.75C18.9489 7.5 19.1397 7.42098 19.2803 7.28033C19.421 7.13968 19.5 6.94891 19.5 6.75C19.5 6.55109 19.421 6.36032 19.2803 6.21967C19.1397 6.07902 18.9489 6 18.75 6H6.25Z" fill="#4A4A4A"/>
<path d="M6.5 9.5C6.30109 9.5 6.11032 9.57902 5.96967 9.71967C5.82902 9.86032 5.75 10.0511 5.75 10.25C5.75 10.4489 5.82902 10.6397 5.96967 10.7803C6.11032 10.921 6.30109 11 6.5 11H14.5C14.6989 11 14.8897 10.921 15.0303 10.7803C15.171 10.6397 15.25 10.4489 15.25 10.25C15.25 10.0511 15.171 9.86032 15.0303 9.71967C14.8897 9.57902 14.6989 9.5 14.5 9.5H6.5Z" fill="#4A4A4A"/>
<path d="M5.5 13.75C5.5 13.5511 5.57902 13.3603 5.71967 13.2197C5.86032 13.079 6.05109 13 6.25 13H18.75C18.9489 13 19.1397 13.079 19.2803 13.2197C19.421 13.3603 19.5 13.5511 19.5 13.75C19.5 13.9489 19.421 14.1397 19.2803 14.2803C19.1397 14.421 18.9489 14.5 18.75 14.5H6.25C6.05109 14.5 5.86032 14.421 5.71967 14.2803C5.57902 14.1397 5.5 13.9489 5.5 13.75Z" fill="#4A4A4A"/>
<path d="M6.5 16.5C6.30109 16.5 6.11032 16.579 5.96967 16.7197C5.82902 16.8603 5.75 17.0511 5.75 17.25C5.75 17.4489 5.82902 17.6397 5.96967 17.7803C6.11032 17.921 6.30109 18 6.5 18H14.5C14.6989 18 14.8897 17.921 15.0303 17.7803C15.171 17.6397 15.25 17.4489 15.25 17.25C15.25 17.0511 15.171 16.8603 15.0303 16.7197C14.8897 16.579 14.6989 16.5 14.5 16.5H6.5Z" fill="#4A4A4A"/>
<path fill-rule="evenodd" clip-rule="evenodd" d="M24.74 10.2C24.8122 10.133 24.8969 10.0809 24.9893 10.0467C25.0817 10.0124 25.1799 9.99673 25.2783 10.0004C25.3767 10.0042 25.4735 10.0272 25.563 10.0683C25.6525 10.1094 25.733 10.1678 25.8 10.24L28.5 13.148L31.2 10.24C31.3353 10.0941 31.5229 10.008 31.7217 10.0005C31.9205 9.99297 32.1141 10.0647 32.26 10.2C32.4059 10.3353 32.492 10.5229 32.4995 10.7217C32.507 10.9205 32.4353 11.1141 32.3 11.26L29.05 14.76C28.9798 14.8357 28.8947 14.8961 28.8001 14.9375C28.7054 14.9788 28.6033 15.0001 28.5 15.0001C28.3967 15.0001 28.2946 14.9788 28.1999 14.9375C28.1053 14.8961 28.0202 14.8357 27.95 14.76L24.7 11.26C24.633 11.1878 24.5809 11.1031 24.5467 11.0107C24.5124 10.9183 24.4967 10.8201 24.5004 10.7217C24.5042 10.6233 24.5272 10.5265 24.5683 10.437C24.6094 10.3475 24.6678 10.267 24.74 10.2Z" fill="#4A4A4A"/>
</svg>
