<svg width="21" height="25" viewBox="0 0 21 25" fill="none" xmlns="http://www.w3.org/2000/svg">
<path d="M12 4.5C12 4.89782 11.8419 5.27936 11.5606 5.56066C11.2793 5.84196 10.8978 6 10.5 6C10.1021 6 9.72061 5.84196 9.43931 5.56066C9.158 5.27936 8.99997 4.89782 8.99997 4.5C8.99997 4.10218 9.158 3.72064 9.43931 3.43934C9.72061 3.15804 10.1021 3 10.5 3C10.8978 3 11.2793 3.15804 11.5606 3.43934C11.8419 3.72064 12 4.10218 12 4.5Z" fill="#8A8A8A"/>
<path d="M12 10C12 10.3978 11.8419 10.7794 11.5606 11.0607C11.2793 11.342 10.8978 11.5 10.5 11.5C10.1021 11.5 9.72061 11.342 9.43931 11.0607C9.158 10.7794 8.99997 10.3978 8.99997 10C8.99997 9.60218 9.158 9.22064 9.43931 8.93934C9.72061 8.65804 10.1021 8.5 10.5 8.5C10.8978 8.5 11.2793 8.65804 11.5606 8.93934C11.8419 9.22064 12 9.60218 12 10Z" fill="#8A8A8A"/>
<path d="M12 15.5C12 15.8978 11.8419 16.2794 11.5606 16.5607C11.2793 16.842 10.8978 17 10.5 17C10.1021 17 9.72061 16.842 9.43931 16.5607C9.158 16.2794 8.99997 15.8978 8.99997 15.5C8.99997 15.1022 9.158 14.7206 9.43931 14.4393C9.72061 14.158 10.1021 14 10.5 14C10.8978 14 11.2793 14.158 11.5606 14.4393C11.8419 14.7206 12 15.1022 12 15.5Z" fill="#8A8A8A"/>
</svg>
