<svg width="25" height="24" viewBox="0 0 25 24" fill="none" xmlns="http://www.w3.org/2000/svg">
<path fill-rule="evenodd" clip-rule="evenodd" d="M9.5 5C8.67 5 8 5.67 8 6.5V16.96C8 17.81 8.69 18.5 9.54 18.5H14C14.8484 18.5005 15.675 18.2312 16.3603 17.731C17.0456 17.2308 17.5541 16.5257 17.8123 15.7176C18.0706 14.9094 18.0652 14.0401 17.7969 13.2352C17.5287 12.4304 17.0114 11.7316 16.32 11.24C16.7269 10.638 16.9622 9.93643 17.0005 9.21076C17.0388 8.48509 16.8786 7.7627 16.5373 7.12117C16.196 6.47965 15.6864 5.94322 15.0631 5.5695C14.4399 5.19579 13.7267 4.99891 13 5H9.5ZM13 10.5C13.3978 10.5 13.7794 10.342 14.0607 10.0607C14.342 9.77936 14.5 9.39783 14.5 9C14.5 8.60218 14.342 8.22065 14.0607 7.93934C13.7794 7.65804 13.3978 7.5 13 7.5H10.5V10.5H13ZM10.5 13V16H14C14.3978 16 14.7794 15.842 15.0607 15.5607C15.342 15.2794 15.5 14.8978 15.5 14.5C15.5 14.1022 15.342 13.7206 15.0607 13.4393C14.7794 13.158 14.3978 13 14 13H10.5Z" fill="#4A4A4A"/>
</svg>
