<svg width="23" height="22" viewBox="0 0 23 22" fill="none" xmlns="http://www.w3.org/2000/svg">
<path d="M11.64 15C11.4411 15 11.2503 14.921 11.1097 14.7803C10.969 14.6397 10.89 14.4489 10.89 14.25V10.75C10.89 10.5511 10.969 10.3603 11.1097 10.2197C11.2503 10.079 11.4411 10 11.64 10C11.8389 10 12.0297 10.079 12.1703 10.2197C12.311 10.3603 12.39 10.5511 12.39 10.75V14.25C12.39 14.4489 12.311 14.6397 12.1703 14.7803C12.0297 14.921 11.8389 15 11.64 15Z" fill="#4A4A4A"/>
<path d="M10.64 8C10.64 7.73478 10.7453 7.48043 10.9329 7.29289C11.1204 7.10536 11.3748 7 11.64 7C11.9052 7 12.1596 7.10536 12.3471 7.29289C12.5346 7.48043 12.64 7.73478 12.64 8C12.64 8.26522 12.5346 8.51957 12.3471 8.70711C12.1596 8.89464 11.9052 9 11.64 9C11.3748 9 11.1204 8.89464 10.9329 8.70711C10.7453 8.51957 10.64 8.26522 10.64 8Z" fill="#4A4A4A"/>
<path fill-rule="evenodd" clip-rule="evenodd" d="M18.64 11C18.64 11.9193 18.4589 12.8295 18.1071 13.6788C17.7554 14.5281 17.2397 15.2997 16.5897 15.9497C15.9397 16.5998 15.168 17.1154 14.3188 17.4672C13.4695 17.8189 12.5592 18 11.64 18C10.7207 18 9.81048 17.8189 8.9612 17.4672C8.11192 17.1154 7.34025 16.5998 6.69024 15.9497C6.04023 15.2997 5.52461 14.5281 5.17283 13.6788C4.82104 12.8295 4.63998 11.9193 4.63998 11C4.63998 9.14348 5.37748 7.36301 6.69024 6.05025C8.00299 4.7375 9.78347 4 11.64 4C13.4965 4 15.277 4.7375 16.5897 6.05025C17.9025 7.36301 18.64 9.14348 18.64 11ZM17.14 11C17.14 12.4587 16.5605 13.8576 15.5291 14.8891C14.4976 15.9205 13.0987 16.5 11.64 16.5C10.1813 16.5 8.78235 15.9205 7.7509 14.8891C6.71945 13.8576 6.13998 12.4587 6.13998 11C6.13998 9.54131 6.71945 8.14236 7.7509 7.11091C8.78235 6.07946 10.1813 5.5 11.64 5.5C13.0987 5.5 14.4976 6.07946 15.5291 7.11091C16.5605 8.14236 17.14 9.54131 17.14 11Z" fill="#4A4A4A"/>
</svg>
