<svg width="29" height="28" viewBox="0 0 29 28" fill="none" xmlns="http://www.w3.org/2000/svg">
<path fill-rule="evenodd" clip-rule="evenodd" d="M21.25 14C21.25 14.1989 21.171 14.3897 21.0303 14.5303C20.8897 14.671 20.6989 14.75 20.5 14.75H10.81L13.53 17.47C13.6625 17.6122 13.7346 17.8002 13.7312 17.9945C13.7278 18.1888 13.649 18.3742 13.5116 18.5116C13.3742 18.649 13.1888 18.7277 12.9945 18.7312C12.8002 18.7346 12.6122 18.6625 12.47 18.53L8.47001 14.53C8.32956 14.3894 8.25067 14.1987 8.25067 14C8.25067 13.8012 8.32956 13.6106 8.47001 13.47L12.47 9.47C12.6122 9.33752 12.8002 9.2654 12.9945 9.26882C13.1888 9.27225 13.3742 9.35096 13.5116 9.48838C13.649 9.62579 13.7278 9.81118 13.7312 10.0055C13.7346 10.1998 13.6625 10.3878 13.53 10.53L10.81 13.25H20.5C20.6989 13.25 20.8897 13.329 21.0303 13.4697C21.171 13.6103 21.25 13.8011 21.25 14Z" fill="#4A4A4A"/>
</svg>
