<svg width="21" height="20" viewBox="0 0 21 20" fill="none" xmlns="http://www.w3.org/2000/svg">
<path d="M11.384 4.32302C11.2679 4.20691 11.1301 4.11481 10.9784 4.05197C10.8268 3.98913 10.6642 3.95679 10.5 3.95679C10.3358 3.95679 10.1732 3.98913 10.0216 4.05197C9.86989 4.11481 9.73208 4.20691 9.616 4.32302L6.97 6.97002C6.83752 7.1122 6.7654 7.30024 6.76882 7.49454C6.77225 7.68884 6.85096 7.87423 6.98838 8.01164C7.12579 8.14905 7.31118 8.22777 7.50548 8.2312C7.69978 8.23462 7.88782 8.1625 8.03 8.03002L10.5 5.56002L12.97 8.03002C13.0387 8.10371 13.1215 8.16281 13.2135 8.2038C13.3055 8.24479 13.4048 8.26684 13.5055 8.26861C13.6062 8.27039 13.7062 8.25186 13.7996 8.21414C13.893 8.17642 13.9778 8.12028 14.049 8.04906C14.1203 7.97784 14.1764 7.89301 14.2141 7.79962C14.2518 7.70623 14.2704 7.6062 14.2686 7.5055C14.2668 7.40479 14.2448 7.30548 14.2038 7.21348C14.1628 7.12148 14.1037 7.03868 14.03 6.97002L11.384 4.32302Z" fill="#8A8A8A"/>
<path d="M14.03 13.03L11.384 15.677C11.2679 15.7931 11.1301 15.8852 10.9784 15.948C10.8268 16.0109 10.6642 16.0432 10.5 16.0432C10.3358 16.0432 10.1732 16.0109 10.0216 15.948C9.86989 15.8852 9.73208 15.7931 9.616 15.677L6.97 13.03C6.83752 12.8878 6.7654 12.6997 6.76882 12.5054C6.77225 12.3111 6.85096 12.1258 6.98838 11.9883C7.12579 11.8509 7.31118 11.7722 7.50548 11.7688C7.69978 11.7654 7.88782 11.8375 8.03 11.97L10.5 14.44L12.97 11.97C13.1122 11.8375 13.3002 11.7654 13.4945 11.7688C13.6888 11.7722 13.8742 11.8509 14.0116 11.9883C14.149 12.1258 14.2277 12.3111 14.2312 12.5054C14.2346 12.6997 14.1625 12.8878 14.03 13.03Z" fill="#8A8A8A"/>
</svg>
