<svg width="21" height="20" viewBox="0 0 21 20" fill="none" xmlns="http://www.w3.org/2000/svg">
<path d="M11.25 6.75C11.25 6.55109 11.171 6.36032 11.0303 6.21967C10.8897 6.07902 10.6989 6 10.5 6C10.3011 6 10.1103 6.07902 9.96967 6.21967C9.82902 6.36032 9.75 6.55109 9.75 6.75V9.25H7.25C7.05109 9.25 6.86032 9.32902 6.71967 9.46967C6.57902 9.61032 6.5 9.80109 6.5 10C6.5 10.1989 6.57902 10.3897 6.71967 10.5303C6.86032 10.671 7.05109 10.75 7.25 10.75H9.75V13.25C9.75 13.4489 9.82902 13.6397 9.96967 13.7803C10.1103 13.921 10.3011 14 10.5 14C10.6989 14 10.8897 13.921 11.0303 13.7803C11.171 13.6397 11.25 13.4489 11.25 13.25V10.75H13.75C13.9489 10.75 14.1397 10.671 14.2803 10.5303C14.421 10.3897 14.5 10.1989 14.5 10C14.5 9.80109 14.421 9.61032 14.2803 9.46967C14.1397 9.32902 13.9489 9.25 13.75 9.25H11.25V6.75Z" fill="#005BD3"/>
</svg>
