<svg width="21" height="20" viewBox="0 0 21 20" fill="none" xmlns="http://www.w3.org/2000/svg">
<path d="M11.384 4.32299C11.2679 4.20688 11.1301 4.11478 10.9784 4.05194C10.8268 3.9891 10.6642 3.95676 10.5 3.95676C10.3358 3.95676 10.1732 3.9891 10.0216 4.05194C9.86989 4.11478 9.73208 4.20688 9.616 4.32299L6.97 6.96999C6.83752 7.11216 6.7654 7.30021 6.76882 7.49451C6.77225 7.68881 6.85096 7.8742 6.98838 8.01161C7.12579 8.14902 7.31118 8.22774 7.50548 8.23116C7.69978 8.23459 7.88782 8.16247 8.03 8.02999L10.5 5.55999L12.97 8.02999C13.0387 8.10368 13.1215 8.16278 13.2135 8.20377C13.3055 8.24476 13.4048 8.2668 13.5055 8.26858C13.6062 8.27036 13.7062 8.25183 13.7996 8.21411C13.893 8.17639 13.9778 8.12025 14.049 8.04903C14.1203 7.97781 14.1764 7.89298 14.2141 7.79959C14.2518 7.7062 14.2704 7.60617 14.2686 7.50547C14.2668 7.40476 14.2448 7.30545 14.2038 7.21345C14.1628 7.12145 14.1037 7.03865 14.03 6.96999L11.384 4.32299Z" fill="#8A8A8A"/>
<path d="M14.03 13.03L11.384 15.677C11.2679 15.7931 11.1301 15.8852 10.9784 15.9481C10.8268 16.0109 10.6642 16.0432 10.5 16.0432C10.3358 16.0432 10.1732 16.0109 10.0216 15.9481C9.86989 15.8852 9.73208 15.7931 9.616 15.677L6.97 13.03C6.83752 12.8878 6.7654 12.6998 6.76882 12.5055C6.77225 12.3112 6.85096 12.1258 6.98838 11.9884C7.12579 11.851 7.31118 11.7723 7.50548 11.7688C7.69978 11.7654 7.88782 11.8375 8.03 11.97L10.5 14.44L12.97 11.97C13.1122 11.8375 13.3002 11.7654 13.4945 11.7688C13.6888 11.7723 13.8742 11.851 14.0116 11.9884C14.149 12.1258 14.2277 12.3112 14.2312 12.5055C14.2346 12.6998 14.1625 12.8878 14.03 13.03Z" fill="#8A8A8A"/>
</svg>
